<?xml version="1.0" encoding="iso-8859-1"?>
<!-- Generator: Adobe Illustrator 19.0.0, SVG Export Plug-In . SVG Version: 6.00 Build 0)  -->
<svg version="1.1" id="Capa_1" xmlns="http://www.w3.org/2000/svg" xmlns:xlink="http://www.w3.org/1999/xlink" x="0px" y="0px"
	 viewBox="0 0 480 480" style="enable-background:new 0 0 480 480;" xml:space="preserve">
<g>
	<g>
		<path d="M158.696,96.285c-1.062-3.07-2.742-5.89-4.936-8.285c8.869-9.683,8.209-24.723-1.475-33.592
			c-2.396-2.194-5.215-3.874-8.285-4.936V40h-16v8h-16v-8H96v8h-8v16h8v48h-8v16h8v8h16v-8h16v8h16v-9.472
			C156.409,122.235,162.989,108.695,158.696,96.285z M136,112h-24V96h24c4.418,0,8,3.582,8,8S140.418,112,136,112z M136,80h-24V64
			h24c4.418,0,8,3.582,8,8S140.418,80,136,80z"/>
	</g>
</g>
<g>
	<g>
		<path d="M120,0C71.399,0,32,39.399,32,88c0.057,48.577,39.423,87.943,88,88c48.601,0,88-39.399,88-88S168.601,0,120,0z M120,160
			c-39.765,0-72-32.236-72-72c0.048-39.744,32.256-71.952,72-72c39.765,0,72,32.235,72,72C192,127.764,159.765,160,120,160z"/>
	</g>
</g>
<g>
	<g>
		<path d="M120,248c-48.601,0-88,39.399-88,88c0,48.601,39.399,88,88,88c48.577-0.057,87.943-39.423,88-88
			C208,287.399,168.601,248,120,248z M120,408c-39.765,0-72-32.236-72-72c0-39.765,32.235-72,72-72s72,32.235,72,72
			C191.952,375.744,159.744,407.951,120,408z"/>
	</g>
</g>
<g>
	<g>
		<path d="M174.4,339.2l-48-64c-2.908-3.535-8.131-4.042-11.666-1.134c-0.414,0.34-0.794,0.72-1.134,1.134l-48,64
			c-2.25,3-2.114,7.161,0.328,10.008l48,56c2.877,3.353,7.927,3.74,11.281,0.863c0.309-0.265,0.598-0.554,0.863-0.863l48-56
			C176.514,346.361,176.65,342.2,174.4,339.2z M120,387.704l-37.752-44.04L120,293.336l37.752,50.328L120,387.704z"/>
	</g>
</g>
<g>
	<g>
		<path d="M132.424,336.84L120,343.056l-12.424-6.216l-7.152,14.32l16,8c2.251,1.125,4.901,1.125,7.152,0l16-8L132.424,336.84z"/>
	</g>
</g>
<g>
	<g>
		<path d="M392,304c-48.601,0-88,39.399-88,88c0,48.601,39.399,88,88,88c48.601,0,88-39.399,88-88
			C479.943,343.423,440.577,304.057,392,304z M392,464c-39.764,0-72-32.236-72-72c0-39.765,32.236-72,72-72
			c39.765,0,72,32.235,72,72C463.952,431.744,431.744,463.951,392,464z"/>
	</g>
</g>
<g>
	<g>
		<path d="M320,80c-48.601,0-88,39.399-88,88c0.057,48.577,39.423,87.943,88,88c48.601,0,88-39.399,88-88S368.601,80,320,80z
			 M320,240c-39.764,0-72-32.236-72-72c0.049-39.744,32.256-71.952,72-72c39.765,0,72,32.235,72,72C392,207.764,359.765,240,320,240
			z"/>
	</g>
</g>
<g>
	<g>
		<path d="M420,352h-28c-4.418,0-8,3.582-8,8v80h16v-32h20c15.464,0,28-12.536,28-28C448,364.536,435.464,352,420,352z M420,392h-20
			v-24h20c6.627,0,12,5.373,12,12C432,386.627,426.627,392,420,392z"/>
	</g>
</g>
<g>
	<g>
		<rect x="360" y="352" width="16" height="88"/>
	</g>
</g>
<g>
	<g>
		<path d="M320,128h-24c-4.418,0-8,3.582-8,8v64c0,4.418,3.582,8,8,8h24c22.091,0,40-17.909,40-40S342.091,128,320,128z M320,192
			h-16v-16h24v-16h-24v-16h16c13.255,0,24,10.745,24,24S333.255,192,320,192z"/>
	</g>
</g>
<g>
	<g>
		<rect x="464" y="8" width="16" height="56"/>
	</g>
</g>
<g>
	<g>
		<rect width="16" height="24"/>
	</g>
</g>
<g>
	<g>
		<rect x="424" y="64" width="16" height="72"/>
	</g>
</g>
<g>
	<g>
		<rect y="160" width="16" height="24"/>
	</g>
</g>
<g>
	<g>
		<rect x="24" y="192" width="16" height="16"/>
	</g>
</g>
<g>
	<g>
		<rect x="24" y="224" width="16" height="32"/>
	</g>
</g>
<g>
	<g>
		<rect x="136" y="432" width="16" height="16"/>
	</g>
</g>
<g>
	<g>
		<rect x="136" y="464" width="16" height="16"/>
	</g>
</g>
<g>
	<g>
		<rect x="280" y="448" width="16" height="16"/>
	</g>
</g>
<g>
	<g>
		<rect x="184" y="168" width="16" height="16"/>
	</g>
</g>
<g>
	<g>
		<rect x="184" y="200" width="16" height="32"/>
	</g>
</g>
<g>
	<g>
		<rect x="424" y="32" width="16" height="16"/>
	</g>
</g>
<g>
	<g>
		<rect x="240" y="344" width="16" height="72"/>
	</g>
</g>
<g>
	<g>
		<rect x="288" width="16" height="56"/>
	</g>
</g>
<g>
	<g>
		<rect x="240" y="312" width="16" height="16"/>
	</g>
</g>
<g>
	<g>
		<rect x="464" y="232" width="16" height="72"/>
	</g>
</g>
<g>
	<g>
		<rect x="464" y="200" width="16" height="16"/>
	</g>
</g>
<g>
	<g>
		<rect y="408" width="16" height="72"/>
	</g>
</g>
<g>
	<g>
		<rect y="376" width="16" height="16"/>
	</g>
</g>
<g>
</g>
<g>
</g>
<g>
</g>
<g>
</g>
<g>
</g>
<g>
</g>
<g>
</g>
<g>
</g>
<g>
</g>
<g>
</g>
<g>
</g>
<g>
</g>
<g>
</g>
<g>
</g>
<g>
</g>
</svg>
